<svg width="415" height="109" viewBox="0 0 415 109" fill="none" xmlns="http://www.w3.org/2000/svg">
    <path
        d="M360.876 32.5482C359.82 32.5482 358.872 32.4282 358.032 32.1882C357.216 31.9482 356.58 31.4562 356.124 30.7122C355.692 29.9442 355.476 28.7802 355.476 27.2202V25.1682H357.744V27.9402C357.744 28.8522 357.876 29.5362 358.14 29.9922C358.428 30.4482 358.8 30.7602 359.256 30.9282C359.736 31.0722 360.276 31.1442 360.876 31.1442C361.476 31.1442 362.004 31.0722 362.46 30.9282C362.94 30.7602 363.312 30.4482 363.576 29.9922C363.84 29.5362 363.972 28.8522 363.972 27.9402V22.3242H358.428V20.7402H363.972V15.2682C363.972 14.3562 363.84 13.6722 363.576 13.2162C363.312 12.7602 362.952 12.4602 362.496 12.3162C362.04 12.1482 361.5 12.0642 360.876 12.0642C360.252 12.0642 359.7 12.1362 359.22 12.2802C358.764 12.4242 358.404 12.7122 358.14 13.1442C357.876 13.5762 357.744 14.2602 357.744 15.1962V18.5802H355.476V15.3402C355.476 14.0202 355.692 13.0122 356.124 12.3162C356.58 11.6202 357.216 11.1522 358.032 10.9122C358.848 10.6722 359.784 10.5522 360.84 10.5522C361.896 10.5522 362.832 10.6722 363.648 10.9122C364.488 11.1522 365.136 11.6202 365.592 12.3162C366.072 12.9882 366.312 13.9962 366.312 15.3402V27.2202C366.312 28.7562 366.072 29.9082 365.592 30.6762C365.136 31.4442 364.5 31.9482 363.684 32.1882C362.868 32.4282 361.932 32.5482 360.876 32.5482ZM371.776 32.1162V12.4602H368.212V10.8402H377.68V12.4602H374.044V32.1162H371.776ZM385.318 32.5482C384.286 32.5482 383.374 32.4282 382.582 32.1882C381.79 31.9482 381.154 31.4562 380.674 30.7122C380.218 29.9442 379.99 28.7922 379.99 27.2562V15.2682C379.99 13.9242 380.218 12.9162 380.674 12.2442C381.154 11.5722 381.802 11.1282 382.618 10.9122C383.434 10.6722 384.358 10.5522 385.39 10.5522C386.422 10.5522 387.334 10.6722 388.126 10.9122C388.942 11.1522 389.578 11.6082 390.034 12.2802C390.514 12.9522 390.754 13.9482 390.754 15.2682V27.2202C390.754 28.7802 390.514 29.9442 390.034 30.7122C389.578 31.4562 388.942 31.9482 388.126 32.1882C387.334 32.4282 386.398 32.5482 385.318 32.5482ZM385.354 31.1442C385.978 31.1442 386.518 31.0722 386.974 30.9282C387.454 30.7602 387.826 30.4482 388.09 29.9922C388.354 29.5122 388.486 28.8042 388.486 27.8682V15.2682C388.486 14.3322 388.354 13.6362 388.09 13.1802C387.826 12.7002 387.454 12.3882 386.974 12.2442C386.494 12.0762 385.954 11.9922 385.354 11.9922C384.73 11.9922 384.178 12.0762 383.698 12.2442C383.242 12.3882 382.882 12.7002 382.618 13.1802C382.354 13.6362 382.222 14.3322 382.222 15.2682V27.8682C382.222 28.8042 382.354 29.5122 382.618 29.9922C382.882 30.4482 383.242 30.7602 383.698 30.9282C384.178 31.0722 384.73 31.1442 385.354 31.1442ZM411.988 32.1162H409.648V22.3242H407.056C406.384 22.3242 405.892 22.6002 405.58 23.1522C405.292 23.6802 405.052 24.2802 404.86 24.9522L402.916 32.1162H400.396L402.592 24.8082C402.88 23.7762 403.216 23.0202 403.6 22.5402C403.984 22.0362 404.56 21.7602 405.328 21.7122V21.7482C404.08 21.7002 403.084 21.3402 402.34 20.6682C401.62 19.9962 401.26 19.0482 401.26 17.8242V14.3682C401.26 13.1442 401.632 12.2562 402.376 11.7042C403.144 11.1282 404.116 10.8402 405.292 10.8402H411.988V32.1162ZM409.648 20.7042V12.1722H406.048C405.184 12.1722 404.536 12.3882 404.104 12.8202C403.696 13.2282 403.492 13.8762 403.492 14.7642V17.6442C403.492 18.6522 403.72 19.4202 404.176 19.9482C404.632 20.4522 405.4 20.7042 406.48 20.7042H409.648Z"
        fill="#FCA5A5" />
    <path
        d="M15.3689 68.5603C10.7342 68.5603 7.14139 72.1506 4.62985 75.7784C1.35871 80.5034 0.509933 87.1659 2.26296 92.4249C3.58803 96.4002 9.19084 99.6602 12.7477 100.954C17.7966 102.79 22.8939 104.144 28.2206 105.003C34.0389 105.941 40.1427 104.666 46.0017 105.198C52.1798 105.76 58.3535 106.842 64.5847 106.939C67.6607 106.987 70.7412 106.939 73.8176 106.939C77.7151 106.939 81.5427 107.643 85.4369 107.643C92.5376 107.643 99.6383 107.643 106.739 107.643C113.84 107.643 121.051 106.939 128.178 106.939C137.885 106.939 147.551 105.883 157.265 105.883C160.732 105.883 164.206 105.948 167.672 105.883C168.747 105.863 169.853 105.435 170.919 105.257C172.56 104.984 174.345 105.179 176.005 105.179C188.755 105.179 201.716 104.273 214.227 102.088C219.643 101.143 224.536 98.7317 226.434 93.3834C227.863 89.3556 229.186 84.589 227.157 80.5318C225.312 76.842 223.503 73.7421 220.018 71.3771C219.231 70.8437 218.617 70.0875 217.827 69.5384C216.878 68.8797 215.698 68.7142 214.658 68.2082C213.621 67.7039 212.538 67.2817 211.489 66.7998C210.385 66.2929 209.265 66.6162 208.124 66.3695C197.132 63.9928 185.392 65.0393 174.186 65.0393C170.855 65.0393 167.503 64.3351 164.131 64.3351C160.602 64.3351 157.036 64.1907 153.51 64.3547C145.484 64.728 137.513 65.7435 129.469 65.7435C123.197 65.7435 116.983 66.4477 110.71 66.4477C105.076 66.4477 99.4427 66.4477 93.8091 66.4477C83.5925 66.4477 73.2433 66.8681 63.0785 66.1152C57.31 65.6879 51.3566 66.0956 45.5713 66.0956C40.8095 66.0956 35.9709 65.8452 31.2134 66.0956C28.0523 66.262 24.7377 67.0368 21.6285 67.1519C20.4163 67.1968 14.842 67.8536 14.3126 68.9124"
        stroke="white" stroke-linecap="round" />
    <path
        d="M226 78.1162C228.807 78.1162 231.938 76.507 234.643 75.847C238.993 74.7855 243.431 73.7311 247.715 72.4042C251.724 71.1622 255.41 68.9407 259.376 67.5333C263.958 65.9072 268.341 63.8424 272.801 61.919C285.023 56.6476 297.513 52.031 309.45 46.074C316.672 42.4693 324.178 39.0067 331.478 35.4323C333.28 34.5501 335.428 32.6141 337.456 32.3611C338.271 32.2594 339.61 31.7541 340.219 31.207C341.985 29.6204 345.807 30.4969 347 28.1162"
        stroke="white" stroke-linecap="round" />
    <path
        d="M226.277 78.4199C228.65 78.4199 231.262 78.9997 233.495 79.4958C235.608 79.9654 238.185 80.1804 240.361 80.1804"
        stroke="white" stroke-linecap="round" />
    <path
        d="M226 78.1162C228.368 77.8343 229.159 74.4286 231 73.1956C233.091 71.7954 234.705 68.936 237 68.1162"
        stroke="white" stroke-linecap="round" />
</svg>
    