<svg width="76" height="148" viewBox="0 0 76 148" fill="none" xmlns="http://www.w3.org/2000/svg">
<path d="M27.2614 2.2334C29.7871 2.2334 32.1329 3.50592 34.2321 4.42681C37.8239 6.00251 40.9015 7.9519 44.4352 9.70726C53.0693 13.9963 59.4631 20.9116 63.183 27.8232C65.1225 31.4269 68.5242 35.5343 69.2542 39.359C69.6934 41.6596 70.9103 43.845 71.5591 46.122C72.275 48.6347 72.792 51.0278 73.1893 53.5756C73.7664 57.276 73.3018 61.2045 73.3018 64.9285C73.3018 69.0002 73.7189 73.0499 73.8077 77.0938C73.8951 81.0713 74.5152 85.5514 73.3018 89.442C72.0353 93.5026 70.658 97.7571 67.9894 101.465C65.4029 105.059 61.1167 108.645 57.6177 111.823C54.1126 115.007 50.8292 118.208 46.7119 121.064C42.2049 124.19 37.8285 127.888 32.3208 130.162C28.0242 131.936 23.6869 133.855 19.6723 135.95C16.748 137.476 13.4263 138.986 10.3124 140.236C8.46353 140.978 6.20397 141.057 4.49414 141.881" stroke="#C69B9B" stroke-width="3" stroke-linecap="round"/>
<path d="M2.47021 141.881C3.75988 141.997 4.47225 143.343 6.26475 143.343C7.22667 143.343 7.39304 144.05 8.54148 144.074C9.60477 144.097 10.344 144.328 11.3522 144.46C16.0407 145.076 20.9498 145.537 25.7434 145.537" stroke="#C69B9B" stroke-width="3" stroke-linecap="round"/>
<path d="M2.47018 141.881C2.47018 140.572 1.16085 139.442 2.72315 138.063C3.95982 136.971 3.79647 135.694 5.53391 134.752C9.12237 132.808 11.6392 129.567 14.1068 126.893" stroke="#C69B9B" stroke-width="3" stroke-linecap="round"/>
</svg>
