<svg width="50" height="50" viewBox="0 0 50 50" fill="none" xmlns="http://www.w3.org/2000/svg">
<path d="M25 0C20.0556 0 15.222 1.46622 11.1107 4.21325C6.99953 6.96028 3.79522 10.8648 1.90303 15.4329C0.0108423 20.0009 -0.484252 25.0278 0.480373 29.8772C1.445 34.7269 3.82603 39.1813 7.32234 42.6778C10.8187 46.1741 15.2732 48.555 20.1228 49.5197C24.9722 50.4844 29.9991 49.9891 34.5672 48.0969C39.1353 46.2047 43.0397 43.0006 45.7869 38.8894C48.5338 34.7781 50 29.9447 50 25C50 18.3696 47.3659 12.0108 42.6778 7.32234C37.9894 2.63391 31.6303 0 25 0ZM37.2812 17.125L33.1875 36.4688C32.875 37.8438 32.0625 38.1563 30.9062 37.5313L24.6563 32.9062L21.5313 35.8125C21.3841 36.0047 21.195 36.1609 20.9784 36.2694C20.7619 36.3775 20.5234 36.435 20.2812 36.4375L20.7188 30.1875L32.2812 19.7188C32.8125 19.2813 32.2812 19.0312 31.5312 19.4688L17.3438 28.375L11.0937 26.4375C9.75 26.0313 9.71875 25.0938 11.375 24.4688L35.4688 15.0938C36.6562 14.75 37.6562 15.4375 37.2812 17.125Z" fill="white"/>
</svg>
