<svg width="487" height="83" viewBox="0 0 487 83" fill="none" xmlns="http://www.w3.org/2000/svg">
<path d="M14.9988 5.28398C10.3641 5.28398 6.77127 8.87426 4.25974 12.502C0.98859 17.227 0.139816 23.8895 1.89284 29.1486C3.21792 33.1238 8.82072 36.3838 12.3776 37.6772C17.4265 39.5132 22.5238 40.8672 27.8505 41.7264C33.6688 42.6648 39.7726 41.3893 45.6315 41.922C51.8097 42.4836 57.9834 43.5656 64.2146 43.6629C67.2905 43.711 70.3711 43.6629 73.4475 43.6629C77.345 43.6629 81.1726 44.3671 85.0668 44.3671C92.1675 44.3671 99.2682 44.3671 106.369 44.3671C113.469 44.3671 120.681 43.6629 127.808 43.6629C137.515 43.6629 147.181 42.6066 156.895 42.6066C160.362 42.6066 163.836 42.672 167.302 42.6066C168.377 42.5863 169.483 42.1583 170.549 41.9807C172.19 41.7072 173.975 41.9024 175.635 41.9024C188.385 41.9024 201.346 40.9963 213.857 38.8118C219.273 37.8662 224.166 35.4553 226.063 30.1071C227.493 26.0792 228.816 21.3126 226.787 17.2554C224.942 13.5657 223.133 10.4657 219.647 8.10078C218.861 7.56732 218.247 6.8111 217.457 6.26203C216.508 5.60328 215.328 5.43786 214.288 4.93187C213.251 4.42752 212.167 4.00531 211.119 3.52347C210.015 3.01651 208.895 3.33982 207.754 3.09313C196.762 0.716389 185.022 1.76297 173.816 1.76297C170.484 1.76297 167.133 1.05877 163.761 1.05877C160.231 1.05877 156.666 0.91433 153.14 1.07833C145.114 1.45162 137.143 2.46717 129.099 2.46717C122.827 2.46717 116.613 3.17137 110.34 3.17137C104.706 3.17137 99.0726 3.17137 93.439 3.17137C83.2224 3.17137 72.8732 3.59178 62.7084 2.83883C56.9399 2.41153 50.9865 2.81927 45.2012 2.81927C40.4394 2.81927 35.6008 2.56888 30.8433 2.81927C27.6822 2.98565 24.3676 3.76042 21.2584 3.87557C20.0462 3.92047 14.4719 4.57726 13.9425 5.63608" stroke="white" stroke-linecap="round"/>
<path d="M369.876 72.432C368.82 72.432 367.872 72.312 367.032 72.072C366.216 71.832 365.58 71.34 365.124 70.596C364.692 69.828 364.476 68.664 364.476 67.104V65.052H366.744V67.824C366.744 68.736 366.876 69.42 367.14 69.876C367.428 70.332 367.8 70.644 368.256 70.812C368.736 70.956 369.276 71.028 369.876 71.028C370.476 71.028 371.004 70.956 371.46 70.812C371.94 70.644 372.312 70.332 372.576 69.876C372.84 69.42 372.972 68.736 372.972 67.824V62.208H367.428V60.624H372.972V55.152C372.972 54.24 372.84 53.556 372.576 53.1C372.312 52.644 371.952 52.344 371.496 52.2C371.04 52.032 370.5 51.948 369.876 51.948C369.252 51.948 368.7 52.02 368.22 52.164C367.764 52.308 367.404 52.596 367.14 53.028C366.876 53.46 366.744 54.144 366.744 55.08V58.464H364.476V55.224C364.476 53.904 364.692 52.896 365.124 52.2C365.58 51.504 366.216 51.036 367.032 50.796C367.848 50.556 368.784 50.436 369.84 50.436C370.896 50.436 371.832 50.556 372.648 50.796C373.488 51.036 374.136 51.504 374.592 52.2C375.072 52.872 375.312 53.88 375.312 55.224V67.104C375.312 68.64 375.072 69.792 374.592 70.56C374.136 71.328 373.5 71.832 372.684 72.072C371.868 72.312 370.932 72.432 369.876 72.432ZM380.776 72V52.344H377.212V50.724H386.68V52.344H383.044V72H380.776ZM394.318 72.432C393.286 72.432 392.374 72.312 391.582 72.072C390.79 71.832 390.154 71.34 389.674 70.596C389.218 69.828 388.99 68.676 388.99 67.14V55.152C388.99 53.808 389.218 52.8 389.674 52.128C390.154 51.456 390.802 51.012 391.618 50.796C392.434 50.556 393.358 50.436 394.39 50.436C395.422 50.436 396.334 50.556 397.126 50.796C397.942 51.036 398.578 51.492 399.034 52.164C399.514 52.836 399.754 53.832 399.754 55.152V67.104C399.754 68.664 399.514 69.828 399.034 70.596C398.578 71.34 397.942 71.832 397.126 72.072C396.334 72.312 395.398 72.432 394.318 72.432ZM394.354 71.028C394.978 71.028 395.518 70.956 395.974 70.812C396.454 70.644 396.826 70.332 397.09 69.876C397.354 69.396 397.486 68.688 397.486 67.752V55.152C397.486 54.216 397.354 53.52 397.09 53.064C396.826 52.584 396.454 52.272 395.974 52.128C395.494 51.96 394.954 51.876 394.354 51.876C393.73 51.876 393.178 51.96 392.698 52.128C392.242 52.272 391.882 52.584 391.618 53.064C391.354 53.52 391.222 54.216 391.222 55.152V67.752C391.222 68.688 391.354 69.396 391.618 69.876C391.882 70.332 392.242 70.644 392.698 70.812C393.178 70.956 393.73 71.028 394.354 71.028ZM411.819 72V52.344H408.255V50.724H417.723V52.344H414.087V72H411.819ZM425.361 72.432C424.329 72.432 423.417 72.312 422.625 72.072C421.833 71.832 421.197 71.34 420.717 70.596C420.261 69.828 420.033 68.676 420.033 67.14V55.152C420.033 53.808 420.261 52.8 420.717 52.128C421.197 51.456 421.845 51.012 422.661 50.796C423.477 50.556 424.401 50.436 425.433 50.436C426.465 50.436 427.377 50.556 428.169 50.796C428.985 51.036 429.621 51.492 430.077 52.164C430.557 52.836 430.797 53.832 430.797 55.152V67.104C430.797 68.664 430.557 69.828 430.077 70.596C429.621 71.34 428.985 71.832 428.169 72.072C427.377 72.312 426.441 72.432 425.361 72.432ZM425.397 71.028C426.021 71.028 426.561 70.956 427.017 70.812C427.497 70.644 427.869 70.332 428.133 69.876C428.397 69.396 428.529 68.688 428.529 67.752V55.152C428.529 54.216 428.397 53.52 428.133 53.064C427.869 52.584 427.497 52.272 427.017 52.128C426.537 51.96 425.997 51.876 425.397 51.876C424.773 51.876 424.221 51.96 423.741 52.128C423.285 52.272 422.925 52.584 422.661 53.064C422.397 53.52 422.265 54.216 422.265 55.152V67.752C422.265 68.688 422.397 69.396 422.661 69.876C422.925 70.332 423.285 70.644 423.741 70.812C424.221 70.956 424.773 71.028 425.397 71.028ZM432.614 72L438.23 60.984L432.794 50.724H435.386L440.21 60.336H441.254V50.76H443.558V60.336H444.602L449.39 50.724H452.018L446.582 60.984L452.198 72H449.606L444.638 61.704H443.558V72H441.254V61.704H440.174L435.17 72H432.614ZM454.67 72V50.724H463.85V52.344H457.01V59.976H462.482V61.776H457.01V70.38H463.85V72H454.67ZM483.988 72H481.648V62.208H479.056C478.384 62.208 477.892 62.484 477.58 63.036C477.292 63.564 477.052 64.164 476.86 64.836L474.916 72H472.396L474.592 64.692C474.88 63.66 475.216 62.904 475.6 62.424C475.984 61.92 476.56 61.644 477.328 61.596V61.632C476.08 61.584 475.084 61.224 474.34 60.552C473.62 59.88 473.26 58.932 473.26 57.708V54.252C473.26 53.028 473.632 52.14 474.376 51.588C475.144 51.012 476.116 50.724 477.292 50.724H483.988V72ZM481.648 60.588V52.056H478.048C477.184 52.056 476.536 52.272 476.104 52.704C475.696 53.112 475.492 53.76 475.492 54.648V57.528C475.492 58.536 475.72 59.304 476.176 59.832C476.632 60.336 477.4 60.588 478.48 60.588H481.648Z" fill="#FCA5A5"/>
<path d="M229.359 23.5771C240.838 25.297 251.784 30.5799 263.257 32.4213C268.091 33.1972 272.894 33.7407 277.629 35.086C286.84 37.7028 296.049 40.2054 305.247 42.8731C317.153 46.3263 329.219 49.6309 341.176 52.4866C346.762 53.8205 352.364 55.3946 357.988 56.2373" stroke="white" stroke-linecap="round"/>
<path d="M228.735 22.9424C228.731 23.1184 229.431 23.7974 229.568 23.9566C229.972 24.426 230.546 24.6839 230.898 25.1867C231.174 25.5802 231.897 26.141 232.307 26.366C232.695 26.5791 232.866 27.1168 233.208 27.3746C234.403 28.276 235.095 29.7595 236.216 30.7571C236.601 31.0993 236.973 31.3729 237.386 31.6622C237.576 31.7959 237.706 32.0929 237.838 32.2915C238.063 32.6313 238.493 32.7483 238.764 33.0501" stroke="white" stroke-linecap="round"/>
<path d="M228.735 22.9428C230.004 23.2889 231.458 23.3465 232.76 23.1976C233.477 23.1155 234.411 23.2309 235.094 22.9915C236.143 22.6242 237.699 22.4921 238.785 22.734C239.321 22.8533 239.896 22.8778 240.44 22.8966C240.759 22.9075 241.211 22.7055 241.492 22.7699C242.121 22.9142 242.864 22.5823 243.452 22.7425" stroke="white" stroke-linecap="round"/>
</svg>
