<svg width="50" height="50" viewBox="0 0 50 50" fill="none" xmlns="http://www.w3.org/2000/svg">
<path d="M40.3654 35.674H36.7327C35.3573 35.674 34.9321 34.5804 32.4614 32.0763C30.3091 29.9923 29.3571 29.7122 28.8286 29.7122C28.0868 29.7122 27.875 29.924 27.875 30.9476V34.2286C27.875 35.1122 27.5933 35.6407 25.2642 35.6407C20.5662 35.3256 16.5283 32.7632 14.1843 29.0287L14.1492 28.9704C11.4284 25.591 9.42283 21.5181 8.43086 17.0635L8.39418 16.8684C8.39418 16.3399 8.60591 15.8448 9.62955 15.8448H13.2623C14.1793 15.8448 14.5327 16.2682 14.8878 17.2552C16.685 22.4434 19.6859 26.9948 20.9213 26.9948C21.3797 26.9948 21.5915 26.783 21.5915 25.6194V20.2527C21.4498 17.782 20.1444 17.5719 20.1444 16.69C20.1594 16.2182 20.5462 15.8414 21.0196 15.8414C21.0346 15.8414 21.048 15.8414 21.063 15.8431H21.0613H26.778C27.5549 15.8431 27.8367 16.2665 27.8367 17.1835V24.419C27.8367 25.1942 28.1901 25.4776 28.4019 25.4776C28.8603 25.4776 29.2504 25.1942 30.0957 24.349C31.8529 22.2033 33.355 19.7493 34.5003 17.1035L34.577 16.9034C34.8188 16.2982 35.399 15.8781 36.0775 15.8781C36.1092 15.8781 36.1392 15.8798 36.1708 15.8814H36.1658H39.7986C40.8923 15.8814 41.1407 16.4433 40.8923 17.2218C39.4352 20.4311 37.798 23.1886 35.9008 25.7427L35.9875 25.6194C35.6007 26.2545 35.459 26.5363 35.9875 27.2448C36.3742 27.7733 37.6463 28.867 38.4932 29.8556C39.7186 31.0677 40.7456 32.4781 41.5208 34.0352L41.5625 34.1269C41.9159 35.1472 41.3857 35.6774 40.3621 35.6774L40.3654 35.674ZM32.6748 0H17.3252C3.316 0 0 3.316 0 17.3252V32.6748C0 46.684 3.316 50 17.3252 50H32.6748C46.684 50 50 46.684 50 32.6748V17.3252C50 3.316 46.6473 0 32.6748 0Z" fill="white"/>
</svg>
