<svg>
    <g filter="url(#filter0_d_68_73)">
        <path
            d="M84.64 177.116V128.348L83.68 120.668H128.224C133.408 120.668 137.376 121.308 140.128 122.588C142.944 123.868 144.896 125.788 145.984 128.348C147.072 130.844 147.616 133.98 147.616 137.756V159.932C147.616 163.772 147.072 166.972 145.984 169.532C144.96 172.028 143.04 173.916 140.224 175.196C137.472 176.476 133.472 177.116 128.224 177.116H84.64ZM97.312 167.9H127.456C132.384 167.9 134.88 165.628 134.944 161.084V136.604C134.944 134.748 134.4 133.18 133.312 131.9C132.224 130.556 130.272 129.884 127.456 129.884H97.312V167.9ZM161.024 177.116V120.668H220.736V129.884H173.696V143.132H209.6V152.636H173.696V167.9H221.12L224.96 176.06C224.96 176.316 224.096 176.572 222.368 176.828C220.64 177.02 217.664 177.116 213.44 177.116H161.024ZM254.588 177.116L227.804 120.764H241.244L259.292 159.644L261.884 166.556H262.748L265.244 159.644L283.484 120.764H296.54L295.004 126.524L269.948 177.116H254.588ZM305.211 177.116V120.668H364.923V129.884H317.883V143.132H353.787V152.636H317.883V167.9H365.307L369.147 176.06C369.147 176.316 368.283 176.572 366.555 176.828C364.827 177.02 361.851 177.116 357.627 177.116H305.211ZM378.711 177.116L379.671 169.436V120.668H392.343V167.9H432.087L435.927 176.06C435.927 176.316 435.063 176.572 433.335 176.828C431.607 177.02 428.631 177.116 424.407 177.116H378.711ZM461.132 177.116C456.652 177.116 453.132 176.476 450.572 175.196C448.012 173.916 446.188 171.996 445.1 169.436C444.076 166.876 443.564 163.708 443.564 159.932V137.756C443.564 134.044 444.076 130.94 445.1 128.444C446.124 125.884 447.916 123.964 450.476 122.684C453.036 121.34 456.588 120.668 461.132 120.668H489.164C493.644 120.668 497.132 121.34 499.628 122.684C502.188 123.964 503.98 125.884 505.004 128.444C506.092 130.94 506.636 134.044 506.636 137.756V159.932C506.636 165.564 505.388 169.852 502.892 172.796C500.396 175.676 495.82 177.116 489.164 177.116H461.132ZM463.916 167.9H486.476C488.844 167.9 490.668 167.292 491.948 166.076C493.292 164.86 493.964 163.196 493.964 161.084V136.604C493.964 134.748 493.292 133.18 491.948 131.9C490.604 130.556 488.78 129.884 486.476 129.884H463.916C461.612 129.884 459.756 130.492 458.348 131.708C456.94 132.924 456.236 134.556 456.236 136.604V161.084C456.236 163.26 456.908 164.956 458.252 166.172C459.66 167.324 461.548 167.9 463.916 167.9ZM521.984 177.116V128.348L521.024 120.572H563.552C567.648 120.572 570.848 121.116 573.152 122.204C575.52 123.292 577.248 124.732 578.336 126.524C579.488 128.252 580.224 130.108 580.544 132.092C580.864 134.076 581.024 135.964 581.024 137.756V143.42C581.024 144.892 580.8 146.556 580.352 148.412C579.904 150.204 579.072 151.964 577.856 153.692C576.64 155.356 574.88 156.764 572.576 157.916C570.272 159.004 567.264 159.548 563.552 159.548H553.76C549.728 159.548 545.952 159.452 542.432 159.26C538.976 159.068 536.384 158.908 534.656 158.78V177.116H521.984ZM534.656 150.332H560.768C563.648 150.332 565.632 149.628 566.72 148.22C567.808 146.812 568.352 145.116 568.352 143.132V137.084C568.352 135.036 567.808 133.308 566.72 131.9C565.632 130.492 563.68 129.788 560.864 129.788H534.656V150.332ZM594.43 177.116V120.668H654.142V129.884H607.102V143.132H643.006V152.636H607.102V167.9H654.526L658.366 176.06C658.366 176.316 657.502 176.572 655.774 176.828C654.046 177.02 651.07 177.116 646.846 177.116H594.43ZM729.274 178.076C726.714 178.076 724.186 177.692 721.69 176.924C719.258 176.092 716.474 174.108 713.338 170.972L706.426 164.06C703.61 161.18 700.506 159.068 697.114 157.724C693.786 156.38 689.594 155.708 684.538 155.708H681.562V177.116H668.89V128.348L667.93 120.572H710.458C714.554 120.572 717.754 121.116 720.058 122.204C722.426 123.292 724.154 124.732 725.242 126.524C726.394 128.252 727.13 130.108 727.45 132.092C727.77 134.076 727.93 135.964 727.93 137.756V139.58C727.93 140.988 727.738 142.556 727.354 144.284C726.97 146.012 726.234 147.708 725.146 149.372C724.058 151.036 722.49 152.444 720.442 153.596C718.458 154.748 715.834 155.42 712.57 155.612C713.402 156.06 714.458 156.764 715.738 157.724C717.018 158.62 718.33 159.612 719.674 160.7C721.082 161.788 722.362 162.78 723.514 163.676C724.666 164.572 725.562 165.212 726.202 165.596C728.506 166.94 730.554 167.868 732.346 168.38C734.138 168.892 735.61 169.18 736.762 169.244C737.914 169.308 738.586 169.34 738.778 169.34L736.858 177.116C736.282 177.308 735.322 177.5 733.978 177.692C732.634 177.948 731.066 178.076 729.274 178.076ZM695.962 146.972C698.394 146.972 700.57 146.94 702.49 146.876C704.41 146.748 706.138 146.62 707.674 146.492C710.49 146.172 712.442 145.404 713.53 144.188C714.682 142.908 715.258 141.276 715.258 139.292V137.084C715.258 135.036 714.714 133.308 713.626 131.9C712.538 130.492 710.586 129.788 707.77 129.788H681.562V146.492C684.378 146.684 686.97 146.812 689.338 146.876C691.706 146.94 693.914 146.972 695.962 146.972ZM788.804 177.516C787.417 177.516 786.257 177.303 785.324 176.876C784.39 176.45 783.457 175.85 782.524 175.076C782.044 175.396 781.47 175.716 780.804 176.036C780.164 176.33 779.297 176.583 778.204 176.796C777.11 176.983 775.684 177.076 773.924 177.076H770.564C768.91 177.076 767.604 176.81 766.644 176.276C765.71 175.743 765.044 174.996 764.644 174.036C764.244 173.076 764.044 171.956 764.044 170.676V169.316C764.044 167.236 764.457 165.636 765.284 164.516C766.11 163.396 767.297 162.663 768.844 162.316C768.55 161.943 768.257 161.45 767.964 160.836C767.697 160.196 767.564 159.423 767.564 158.516V157.956C767.564 157.316 767.737 156.663 768.084 155.996C768.457 155.303 769.057 154.73 769.884 154.276C770.71 153.796 771.844 153.556 773.284 153.556H777.444C778.777 153.556 779.804 153.716 780.524 154.036C781.244 154.33 781.75 154.716 782.044 155.196C782.364 155.676 782.55 156.17 782.604 156.676C782.684 157.183 782.724 157.636 782.724 158.036V159.516C782.724 159.97 782.59 160.303 782.324 160.516C782.084 160.703 781.75 160.796 781.324 160.796H777.924V158.836C777.924 158.383 777.817 158.036 777.604 157.796C777.39 157.53 777.017 157.396 776.484 157.396H774.524C773.937 157.396 773.51 157.53 773.244 157.796C773.004 158.036 772.884 158.383 772.884 158.836C772.884 159.583 773.044 160.183 773.364 160.636C773.684 161.063 774.257 161.583 775.084 162.196C776.044 162.863 776.99 163.543 777.924 164.236C778.884 164.903 779.777 165.61 780.604 166.356C781.03 166.73 781.497 167.17 782.004 167.676C782.51 168.156 782.977 168.61 783.404 169.036C783.83 169.463 784.11 169.756 784.244 169.916L784.644 169.636V162.516L790.284 162.916V166.276C790.284 166.836 790.204 167.33 790.044 167.756C789.91 168.183 789.617 168.623 789.164 169.076C788.737 169.503 788.31 169.93 787.884 170.356C787.457 170.783 787.03 171.21 786.604 171.636C787.537 172.543 788.524 173.196 789.564 173.596C790.63 173.996 791.51 174.196 792.204 174.196L791.724 177.076C791.51 177.183 791.137 177.276 790.604 177.356C790.097 177.463 789.497 177.516 788.804 177.516ZM771.924 172.716H776.924C778.017 172.716 778.777 172.623 779.204 172.436C779.657 172.25 779.91 172.13 779.964 172.076C779.297 171.436 778.497 170.65 777.564 169.716C776.63 168.783 775.577 167.836 774.404 166.876C773.39 166.05 772.43 165.636 771.524 165.636C770.83 165.636 770.257 165.876 769.804 166.356C769.377 166.81 769.164 167.436 769.164 168.236V169.916C769.164 170.903 769.377 171.623 769.804 172.076C770.23 172.503 770.937 172.716 771.924 172.716ZM84.64 292.116V243.348L83.68 235.668H128.224C133.408 235.668 137.376 236.308 140.128 237.588C142.944 238.868 144.896 240.788 145.984 243.348C147.072 245.844 147.616 248.98 147.616 252.756V274.932C147.616 278.772 147.072 281.972 145.984 284.532C144.96 287.028 143.04 288.916 140.224 290.196C137.472 291.476 133.472 292.116 128.224 292.116H84.64ZM97.312 282.9H127.456C132.384 282.9 134.88 280.628 134.944 276.084V251.604C134.944 249.748 134.4 248.18 133.312 246.9C132.224 245.556 130.272 244.884 127.456 244.884H97.312V282.9ZM161.024 292.116V235.668H220.736V244.884H173.696V258.132H209.6V267.636H173.696V282.9H221.12L224.96 291.06C224.96 291.316 224.096 291.572 222.368 291.828C220.64 292.02 217.664 292.116 213.44 292.116H161.024ZM245.276 292.116C240.924 292.116 237.724 291.924 235.676 291.54C233.628 291.156 232.604 290.708 232.604 290.196L236.444 281.844C237.916 282.1 241.564 282.356 247.388 282.612C253.276 282.804 261.34 282.9 271.58 282.9H273.404C276.156 282.9 278.108 282.42 279.26 281.46C280.412 280.436 280.988 278.74 280.988 276.372V274.452C280.988 272.212 280.508 270.612 279.548 269.652C278.652 268.692 276.604 268.212 273.404 268.212H251.132C244.668 268.212 239.964 267.028 237.02 264.66C234.076 262.228 232.604 258.292 232.604 252.852V251.316C232.604 248.5 233.116 245.908 234.14 243.54C235.228 241.172 237.052 239.284 239.612 237.876C242.172 236.404 245.692 235.668 250.172 235.668H276.284C280.636 235.668 284.156 235.892 286.844 236.34C289.532 236.788 290.876 237.268 290.876 237.78L288.956 245.844C287.292 245.652 283.516 245.46 277.628 245.268C271.74 245.012 263.836 244.884 253.916 244.884L252.86 244.788C249.916 244.788 247.932 245.396 246.908 246.612C245.884 247.764 245.34 249.236 245.276 251.028V252.66C245.276 254.772 245.852 256.372 247.004 257.46C248.22 258.484 250.204 258.996 252.956 258.996H274.268C278.364 258.996 281.852 259.412 284.732 260.244C287.612 261.076 289.82 262.612 291.356 264.852C292.892 267.028 293.66 270.26 293.66 274.548V276.084C293.66 280.884 292.412 284.756 289.916 287.7C287.484 290.644 283.228 292.116 277.148 292.116H245.276ZM307.086 292.116V235.668H319.758V292.116H307.086ZM351.726 292.116C347.182 292.116 343.63 291.476 341.07 290.196C338.51 288.916 336.718 286.996 335.694 284.436C334.67 281.876 334.158 278.708 334.158 274.932V253.524C334.158 247.38 335.534 242.868 338.286 239.988C341.038 237.044 345.518 235.572 351.726 235.572H380.622C385.038 235.572 388.398 235.828 390.702 236.34C393.07 236.788 394.254 237.268 394.254 237.78L392.334 245.748C391.246 245.556 388.014 245.364 382.638 245.172C377.326 244.916 369.582 244.788 359.406 244.788H354.51C349.39 244.788 346.83 247.06 346.83 251.604V276.084C346.83 278.26 347.374 279.956 348.462 281.172C349.614 282.324 351.63 282.9 354.51 282.9H358.446C364.59 282.9 369.774 282.868 373.998 282.804C378.222 282.676 381.71 282.58 384.462 282.516V269.46L378.702 269.556L366.126 270.516V261.108H397.038V288.084L397.998 290.1C397.998 290.612 396.654 291.092 393.966 291.54C391.278 291.924 386.734 292.116 380.333 292.116H351.726ZM412.39 292.116V243.348L411.43 235.668H425.254L457.894 269.844L461.638 275.028H462.694V235.668H475.366V292.116H463.174L429.766 257.364L426.022 252.852H425.062V292.116H412.39ZM490.743 292.116V235.668H550.455V244.884H503.415V258.132H539.319V267.636H503.415V282.9H550.839L554.679 291.06C554.679 291.316 553.815 291.572 552.087 291.828C550.359 292.02 547.383 292.116 543.159 292.116H490.743ZM625.587 293.076C623.027 293.076 620.499 292.692 618.003 291.924C615.571 291.092 612.787 289.108 609.651 285.972L602.739 279.06C599.923 276.18 596.819 274.068 593.427 272.724C590.099 271.38 585.907 270.708 580.851 270.708H577.875V292.116H565.203V243.348L564.243 235.572H606.771C610.867 235.572 614.067 236.116 616.371 237.204C618.739 238.292 620.467 239.732 621.555 241.524C622.707 243.252 623.443 245.108 623.763 247.092C624.083 249.076 624.243 250.964 624.243 252.756V254.58C624.243 255.988 624.051 257.556 623.667 259.284C623.283 261.012 622.547 262.708 621.459 264.372C620.371 266.036 618.803 267.444 616.755 268.596C614.771 269.748 612.147 270.42 608.883 270.612C609.715 271.06 610.771 271.764 612.051 272.724C613.331 273.62 614.643 274.612 615.987 275.7C617.395 276.788 618.675 277.78 619.827 278.676C620.979 279.572 621.875 280.212 622.515 280.596C624.819 281.94 626.867 282.868 628.659 283.38C630.451 283.892 631.923 284.18 633.075 284.244C634.227 284.308 634.899 284.34 635.091 284.34L633.171 292.116C632.595 292.308 631.635 292.5 630.291 292.692C628.947 292.948 627.379 293.076 625.587 293.076ZM592.275 261.972C594.707 261.972 596.883 261.94 598.803 261.876C600.723 261.748 602.451 261.62 603.987 261.492C606.803 261.172 608.755 260.404 609.843 259.188C610.995 257.908 611.571 256.276 611.571 254.292V252.084C611.571 250.036 611.027 248.308 609.939 246.9C608.851 245.492 606.899 244.788 604.083 244.788H577.875V261.492C580.691 261.684 583.283 261.812 585.651 261.876C588.019 261.94 590.227 261.972 592.275 261.972Z"
            fill="#AFAFAF" fill-opacity="0.2" shape-rendering="crispEdges" />
    </g>
    <g filter="url(#filter1_d_68_73)">
        <path
            d="M58.64 152.116V103.348L57.68 95.6682H102.224C107.408 95.6682 111.376 96.3082 114.128 97.5882C116.944 98.8682 118.896 100.788 119.984 103.348C121.072 105.844 121.616 108.98 121.616 112.756V134.932C121.616 138.772 121.072 141.972 119.984 144.532C118.96 147.028 117.04 148.916 114.224 150.196C111.472 151.476 107.472 152.116 102.224 152.116H58.64ZM71.312 142.9H101.456C106.384 142.9 108.88 140.628 108.944 136.084V111.604C108.944 109.748 108.4 108.18 107.312 106.9C106.224 105.556 104.272 104.884 101.456 104.884H71.312V142.9ZM135.024 152.116V95.6682H194.736V104.884H147.696V118.132H183.6V127.636H147.696V142.9H195.12L198.96 151.06C198.96 151.316 198.096 151.572 196.368 151.828C194.64 152.02 191.664 152.116 187.44 152.116H135.024ZM228.588 152.116L201.804 95.7642H215.244L233.292 134.644L235.884 141.556H236.748L239.244 134.644L257.484 95.7642H270.54L269.004 101.524L243.948 152.116H228.588ZM279.211 152.116V95.6682H338.923V104.884H291.883V118.132H327.787V127.636H291.883V142.9H339.307L343.147 151.06C343.147 151.316 342.283 151.572 340.555 151.828C338.827 152.02 335.851 152.116 331.627 152.116H279.211ZM352.711 152.116L353.671 144.436V95.6682H366.343V142.9H406.087L409.927 151.06C409.927 151.316 409.063 151.572 407.335 151.828C405.607 152.02 402.631 152.116 398.407 152.116H352.711ZM435.132 152.116C430.652 152.116 427.132 151.476 424.572 150.196C422.012 148.916 420.188 146.996 419.1 144.436C418.076 141.876 417.564 138.708 417.564 134.932V112.756C417.564 109.044 418.076 105.94 419.1 103.444C420.124 100.884 421.916 98.9642 424.476 97.6842C427.036 96.3402 430.588 95.6682 435.132 95.6682H463.164C467.644 95.6682 471.132 96.3402 473.628 97.6842C476.188 98.9642 477.98 100.884 479.004 103.444C480.092 105.94 480.636 109.044 480.636 112.756V134.932C480.636 140.564 479.388 144.852 476.892 147.796C474.396 150.676 469.82 152.116 463.164 152.116H435.132ZM437.916 142.9H460.476C462.844 142.9 464.668 142.292 465.948 141.076C467.292 139.86 467.964 138.196 467.964 136.084V111.604C467.964 109.748 467.292 108.18 465.948 106.9C464.604 105.556 462.78 104.884 460.476 104.884H437.916C435.612 104.884 433.756 105.492 432.348 106.708C430.94 107.924 430.236 109.556 430.236 111.604V136.084C430.236 138.26 430.908 139.956 432.252 141.172C433.66 142.324 435.548 142.9 437.916 142.9ZM495.984 152.116V103.348L495.024 95.5722H537.552C541.648 95.5722 544.848 96.1162 547.152 97.2042C549.52 98.2922 551.248 99.7322 552.336 101.524C553.488 103.252 554.224 105.108 554.544 107.092C554.864 109.076 555.024 110.964 555.024 112.756V118.42C555.024 119.892 554.8 121.556 554.352 123.412C553.904 125.204 553.072 126.964 551.856 128.692C550.64 130.356 548.88 131.764 546.576 132.916C544.272 134.004 541.264 134.548 537.552 134.548H527.76C523.728 134.548 519.952 134.452 516.432 134.26C512.976 134.068 510.384 133.908 508.656 133.78V152.116H495.984ZM508.656 125.332H534.768C537.648 125.332 539.632 124.628 540.72 123.22C541.808 121.812 542.352 120.116 542.352 118.132V112.084C542.352 110.036 541.808 108.308 540.72 106.9C539.632 105.492 537.68 104.788 534.864 104.788H508.656V125.332ZM568.43 152.116V95.6682H628.142V104.884H581.102V118.132H617.006V127.636H581.102V142.9H628.526L632.366 151.06C632.366 151.316 631.502 151.572 629.774 151.828C628.046 152.02 625.07 152.116 620.846 152.116H568.43ZM703.274 153.076C700.714 153.076 698.186 152.692 695.69 151.924C693.258 151.092 690.474 149.108 687.338 145.972L680.426 139.06C677.61 136.18 674.506 134.068 671.114 132.724C667.786 131.38 663.594 130.708 658.538 130.708H655.562V152.116H642.89V103.348L641.93 95.5722H684.458C688.554 95.5722 691.754 96.1162 694.058 97.2042C696.426 98.2922 698.154 99.7322 699.242 101.524C700.394 103.252 701.13 105.108 701.45 107.092C701.77 109.076 701.93 110.964 701.93 112.756V114.58C701.93 115.988 701.738 117.556 701.354 119.284C700.97 121.012 700.234 122.708 699.146 124.372C698.058 126.036 696.49 127.444 694.442 128.596C692.458 129.748 689.834 130.42 686.57 130.612C687.402 131.06 688.458 131.764 689.738 132.724C691.018 133.62 692.33 134.612 693.674 135.7C695.082 136.788 696.362 137.78 697.514 138.676C698.666 139.572 699.562 140.212 700.202 140.596C702.506 141.94 704.554 142.868 706.346 143.38C708.138 143.892 709.61 144.18 710.762 144.244C711.914 144.308 712.586 144.34 712.778 144.34L710.858 152.116C710.282 152.308 709.322 152.5 707.978 152.692C706.634 152.948 705.066 153.076 703.274 153.076ZM669.962 121.972C672.394 121.972 674.57 121.94 676.49 121.876C678.41 121.748 680.138 121.62 681.674 121.492C684.49 121.172 686.442 120.404 687.53 119.188C688.682 117.908 689.258 116.276 689.258 114.292V112.084C689.258 110.036 688.714 108.308 687.626 106.9C686.538 105.492 684.586 104.788 681.77 104.788H655.562V121.492C658.378 121.684 660.97 121.812 663.338 121.876C665.706 121.94 667.914 121.972 669.962 121.972ZM58.64 267.116V218.348L57.68 210.668H102.224C107.408 210.668 111.376 211.308 114.128 212.588C116.944 213.868 118.896 215.788 119.984 218.348C121.072 220.844 121.616 223.98 121.616 227.756V249.932C121.616 253.772 121.072 256.972 119.984 259.532C118.96 262.028 117.04 263.916 114.224 265.196C111.472 266.476 107.472 267.116 102.224 267.116H58.64ZM71.312 257.9H101.456C106.384 257.9 108.88 255.628 108.944 251.084V226.604C108.944 224.748 108.4 223.18 107.312 221.9C106.224 220.556 104.272 219.884 101.456 219.884H71.312V257.9ZM135.024 267.116V210.668H194.736V219.884H147.696V233.132H183.6V242.636H147.696V257.9H195.12L198.96 266.06C198.96 266.316 198.096 266.572 196.368 266.828C194.64 267.02 191.664 267.116 187.44 267.116H135.024ZM219.276 267.116C214.924 267.116 211.724 266.924 209.676 266.54C207.628 266.156 206.604 265.708 206.604 265.196L210.444 256.844C211.916 257.1 215.564 257.356 221.388 257.612C227.276 257.804 235.34 257.9 245.58 257.9H247.404C250.156 257.9 252.108 257.42 253.26 256.46C254.412 255.436 254.988 253.74 254.988 251.372V249.452C254.988 247.212 254.508 245.612 253.548 244.652C252.652 243.692 250.604 243.212 247.404 243.212H225.132C218.668 243.212 213.964 242.028 211.02 239.66C208.076 237.228 206.604 233.292 206.604 227.852V226.316C206.604 223.5 207.116 220.908 208.14 218.54C209.228 216.172 211.052 214.284 213.612 212.876C216.172 211.404 219.692 210.668 224.172 210.668H250.284C254.636 210.668 258.156 210.892 260.844 211.34C263.532 211.788 264.876 212.268 264.876 212.78L262.956 220.844C261.292 220.652 257.516 220.46 251.628 220.268C245.74 220.012 237.836 219.884 227.916 219.884L226.86 219.788C223.916 219.788 221.932 220.396 220.908 221.612C219.884 222.764 219.34 224.236 219.276 226.028V227.66C219.276 229.772 219.852 231.372 221.004 232.46C222.22 233.484 224.204 233.996 226.956 233.996H248.268C252.364 233.996 255.852 234.412 258.732 235.244C261.612 236.076 263.82 237.612 265.356 239.852C266.892 242.028 267.66 245.26 267.66 249.548V251.084C267.66 255.884 266.412 259.756 263.916 262.7C261.484 265.644 257.228 267.116 251.148 267.116H219.276ZM281.086 267.116V210.668H293.758V267.116H281.086ZM325.726 267.116C321.182 267.116 317.63 266.476 315.07 265.196C312.51 263.916 310.718 261.996 309.694 259.436C308.67 256.876 308.158 253.708 308.158 249.932V228.524C308.158 222.38 309.534 217.868 312.286 214.988C315.038 212.044 319.518 210.572 325.726 210.572H354.622C359.038 210.572 362.398 210.828 364.702 211.34C367.07 211.788 368.254 212.268 368.254 212.78L366.334 220.748C365.246 220.556 362.014 220.364 356.638 220.172C351.326 219.916 343.582 219.788 333.406 219.788H328.51C323.39 219.788 320.83 222.06 320.83 226.604V251.084C320.83 253.26 321.374 254.956 322.462 256.172C323.614 257.324 325.63 257.9 328.51 257.9H332.446C338.59 257.9 343.774 257.868 347.998 257.804C352.222 257.676 355.71 257.58 358.462 257.516V244.46L352.702 244.556L340.126 245.516V236.108H371.038V263.084L371.998 265.1C371.998 265.612 370.654 266.092 367.966 266.54C365.278 266.924 360.734 267.116 354.333 267.116H325.726ZM386.39 267.116V218.348L385.43 210.668H399.254L431.894 244.844L435.638 250.028H436.694V210.668H449.366V267.116H437.174L403.766 232.364L400.022 227.852H399.062V267.116H386.39ZM464.743 267.116V210.668H524.455V219.884H477.415V233.132H513.319V242.636H477.415V257.9H524.839L528.679 266.06C528.679 266.316 527.815 266.572 526.087 266.828C524.359 267.02 521.383 267.116 517.159 267.116H464.743ZM599.587 268.076C597.027 268.076 594.499 267.692 592.003 266.924C589.571 266.092 586.787 264.108 583.651 260.972L576.739 254.06C573.923 251.18 570.819 249.068 567.427 247.724C564.099 246.38 559.907 245.708 554.851 245.708H551.875V267.116H539.203V218.348L538.243 210.572H580.771C584.867 210.572 588.067 211.116 590.371 212.204C592.739 213.292 594.467 214.732 595.555 216.524C596.707 218.252 597.443 220.108 597.763 222.092C598.083 224.076 598.243 225.964 598.243 227.756V229.58C598.243 230.988 598.051 232.556 597.667 234.284C597.283 236.012 596.547 237.708 595.459 239.372C594.371 241.036 592.803 242.444 590.755 243.596C588.771 244.748 586.147 245.42 582.883 245.612C583.715 246.06 584.771 246.764 586.051 247.724C587.331 248.62 588.643 249.612 589.987 250.7C591.395 251.788 592.675 252.78 593.827 253.676C594.979 254.572 595.875 255.212 596.515 255.596C598.819 256.94 600.867 257.868 602.659 258.38C604.451 258.892 605.923 259.18 607.075 259.244C608.227 259.308 608.899 259.34 609.091 259.34L607.171 267.116C606.595 267.308 605.635 267.5 604.291 267.692C602.947 267.948 601.379 268.076 599.587 268.076ZM566.275 236.972C568.707 236.972 570.883 236.94 572.803 236.876C574.723 236.748 576.451 236.62 577.987 236.492C580.803 236.172 582.755 235.404 583.843 234.188C584.995 232.908 585.571 231.276 585.571 229.292V227.084C585.571 225.036 585.027 223.308 583.939 221.9C582.851 220.492 580.899 219.788 578.083 219.788H551.875V236.492C554.691 236.684 557.283 236.812 559.651 236.876C562.019 236.94 564.227 236.972 566.275 236.972Z"
            fill="white" />
        <path
            d="M768.396 152.596C766.732 152.596 765.34 152.34 764.22 151.828C763.1 151.316 761.98 150.596 760.86 149.668C760.284 150.052 759.596 150.436 758.796 150.82C758.028 151.172 756.988 151.476 755.676 151.732C754.364 151.956 752.652 152.068 750.54 152.068H746.508C744.524 152.068 742.956 151.748 741.804 151.108C740.684 150.468 739.884 149.572 739.404 148.42C738.924 147.268 738.684 145.924 738.684 144.388V142.756C738.684 140.26 739.18 138.34 740.172 136.996C741.164 135.652 742.588 134.772 744.444 134.356C744.092 133.908 743.74 133.316 743.388 132.58C743.068 131.812 742.908 130.884 742.908 129.796V129.124C742.908 128.356 743.116 127.572 743.532 126.772C743.98 125.94 744.7 125.252 745.692 124.708C746.684 124.132 748.044 123.844 749.772 123.844H754.764C756.364 123.844 757.596 124.036 758.46 124.42C759.324 124.772 759.932 125.236 760.284 125.812C760.668 126.388 760.892 126.98 760.956 127.588C761.052 128.196 761.1 128.74 761.1 129.22V130.996C761.1 131.54 760.94 131.94 760.62 132.196C760.332 132.42 759.932 132.532 759.42 132.532H755.34V130.18C755.34 129.636 755.212 129.22 754.956 128.932C754.7 128.612 754.252 128.452 753.612 128.452H751.26C750.556 128.452 750.044 128.612 749.724 128.932C749.436 129.22 749.292 129.636 749.292 130.18C749.292 131.076 749.484 131.796 749.868 132.34C750.252 132.852 750.94 133.476 751.932 134.212C753.084 135.012 754.22 135.828 755.34 136.66C756.492 137.46 757.564 138.308 758.556 139.204C759.068 139.652 759.628 140.18 760.236 140.788C760.844 141.364 761.404 141.908 761.916 142.42C762.428 142.932 762.764 143.284 762.924 143.476L763.404 143.14V134.596L770.172 135.076V139.108C770.172 139.78 770.076 140.372 769.884 140.884C769.724 141.396 769.372 141.924 768.828 142.468C768.316 142.98 767.804 143.492 767.292 144.004C766.78 144.516 766.268 145.028 765.756 145.54C766.876 146.628 768.06 147.412 769.308 147.892C770.588 148.372 771.644 148.612 772.476 148.612L771.9 152.068C771.644 152.196 771.196 152.308 770.556 152.404C769.948 152.532 769.228 152.596 768.396 152.596ZM748.14 146.836H754.14C755.452 146.836 756.364 146.724 756.876 146.5C757.42 146.276 757.724 146.132 757.788 146.068C756.988 145.3 756.028 144.356 754.908 143.236C753.788 142.116 752.524 140.98 751.116 139.828C749.9 138.836 748.748 138.34 747.66 138.34C746.828 138.34 746.14 138.628 745.596 139.204C745.084 139.748 744.828 140.5 744.828 141.46V143.476C744.828 144.66 745.084 145.524 745.596 146.068C746.108 146.58 746.956 146.836 748.14 146.836Z"
            fill="#C69B9B" />
    </g>
</svg>
    