<svg width="731" height="415" viewBox="0 0 731 415" fill="none" xmlns="http://www.w3.org/2000/svg">
<g filter="url(#filter0_d_80_6)">
<path d="M115.18 194.233L116.14 186.553V137.785H128.812V185.017H168.556L172.396 193.177C172.396 193.433 171.532 193.689 169.804 193.945C168.076 194.137 165.1 194.233 160.876 194.233H115.18ZM180.993 194.233V137.785H240.705V147.001H193.665V160.249H229.569V169.753H193.665V185.017H241.089L244.929 193.177C244.929 193.433 244.065 193.689 242.337 193.945C240.609 194.137 237.633 194.233 233.409 194.233H180.993ZM273.789 194.233L273.693 146.905H248.733V137.689H311.517V146.905H286.461V194.233H273.789ZM319.805 146.041C318.461 146.425 317.661 146.265 317.405 145.561C317.213 144.793 317.341 144.025 317.789 143.257C318.173 142.745 318.685 141.913 319.325 140.761C320.029 139.609 320.701 138.329 321.341 136.921C321.981 135.449 322.397 133.977 322.589 132.505C320.925 132.249 319.709 131.641 318.941 130.681C318.173 129.721 317.789 128.249 317.789 126.265C317.789 124.025 318.301 122.457 319.325 121.561C320.413 120.601 322.173 120.121 324.605 120.121C327.229 120.121 329.181 120.697 330.461 121.849C331.805 122.937 332.477 124.761 332.477 127.321C332.477 129.177 332.061 131.129 331.229 133.177C330.461 135.225 329.437 137.177 328.157 139.033C326.877 140.825 325.501 142.361 324.029 143.641C322.557 144.857 321.149 145.657 319.805 146.041ZM358.62 194.233C354.268 194.233 351.068 194.041 349.02 193.657C346.972 193.273 345.948 192.825 345.948 192.313L349.788 183.961C351.26 184.217 354.908 184.473 360.732 184.729C366.62 184.921 374.684 185.017 384.924 185.017H386.748C389.5 185.017 391.451 184.537 392.604 183.577C393.756 182.553 394.332 180.857 394.332 178.489V176.569C394.332 174.329 393.852 172.729 392.892 171.769C391.996 170.809 389.948 170.329 386.748 170.329H364.476C358.012 170.329 353.308 169.145 350.364 166.777C347.42 164.345 345.948 160.409 345.948 154.969V153.433C345.948 150.617 346.46 148.025 347.484 145.657C348.572 143.289 350.396 141.401 352.956 139.993C355.516 138.521 359.036 137.785 363.516 137.785H389.628C393.98 137.785 397.5 138.009 400.188 138.457C402.876 138.905 404.22 139.385 404.22 139.897L402.3 147.961C400.636 147.769 396.86 147.577 390.972 147.385C385.084 147.129 377.18 147.001 367.26 147.001L366.204 146.905C363.26 146.905 361.276 147.513 360.252 148.729C359.228 149.881 358.684 151.353 358.62 153.145V154.777C358.62 156.889 359.196 158.489 360.348 159.577C361.564 160.601 363.548 161.113 366.3 161.113H387.612C391.708 161.113 395.196 161.529 398.076 162.361C400.956 163.193 403.164 164.729 404.7 166.969C406.236 169.145 407.004 172.377 407.004 176.665V178.201C407.004 183.001 405.756 186.873 403.26 189.817C400.828 192.761 396.572 194.233 390.492 194.233H358.62ZM131.788 309.233C127.244 309.233 123.692 308.593 121.132 307.313C118.572 306.033 116.78 304.113 115.756 301.553C114.732 298.993 114.22 295.825 114.22 292.049V270.641C114.22 264.497 115.596 259.985 118.348 257.105C121.1 254.161 125.58 252.689 131.788 252.689H160.684C165.1 252.689 168.46 252.945 170.764 253.457C173.132 253.905 174.316 254.385 174.316 254.897L172.396 262.865C171.308 262.673 168.076 262.481 162.7 262.289C157.388 262.033 149.644 261.905 139.468 261.905H134.572C129.452 261.905 126.892 264.177 126.892 268.721V293.201C126.892 295.377 127.436 297.073 128.524 298.289C129.676 299.441 131.692 300.017 134.572 300.017H138.508C149.132 300.017 157.356 299.921 163.18 299.729C169.068 299.473 172.716 299.217 174.124 298.961L178.06 305.297C178.06 305.617 177.516 306.097 176.428 306.737C175.404 307.377 173.484 307.953 170.668 308.465C167.852 308.977 163.788 309.233 158.476 309.233H131.788ZM204.257 309.233C199.777 309.233 196.257 308.593 193.697 307.313C191.137 306.033 189.313 304.113 188.225 301.553C187.201 298.993 186.689 295.825 186.689 292.049V269.873C186.689 266.161 187.201 263.057 188.225 260.561C189.249 258.001 191.041 256.081 193.601 254.801C196.161 253.457 199.713 252.785 204.257 252.785H232.289C236.769 252.785 240.257 253.457 242.753 254.801C245.313 256.081 247.105 258.001 248.129 260.561C249.217 263.057 249.761 266.161 249.761 269.873V292.049C249.761 297.681 248.513 301.969 246.017 304.913C243.521 307.793 238.945 309.233 232.289 309.233H204.257ZM207.041 300.017H229.601C231.969 300.017 233.793 299.409 235.073 298.193C236.417 296.977 237.089 295.313 237.089 293.201V268.721C237.089 266.865 236.417 265.297 235.073 264.017C233.729 262.673 231.905 262.001 229.601 262.001H207.041C204.737 262.001 202.881 262.609 201.473 263.825C200.065 265.041 199.361 266.673 199.361 268.721V293.201C199.361 295.377 200.033 297.073 201.377 298.289C202.785 299.441 204.673 300.017 207.041 300.017ZM265.109 309.233V260.465L264.149 252.785H277.973L310.613 286.961L314.357 292.145H315.413V252.785H328.085V309.233H315.893L282.485 274.481L278.741 269.969H277.781V309.233H265.109ZM344.421 309.233V260.465L343.461 252.785H357.285L389.925 286.961L393.669 292.145H394.725V252.785H407.397V309.233H395.205L361.797 274.481L358.053 269.969H357.093V309.233H344.421ZM422.774 309.233V252.785H482.486V262.001H435.446V275.249H471.35V284.753H435.446V300.017H482.87L486.71 308.177C486.71 308.433 485.846 308.689 484.118 308.945C482.39 309.137 479.414 309.233 475.19 309.233H422.774ZM512.882 309.233C508.338 309.233 504.786 308.593 502.226 307.313C499.666 306.033 497.874 304.113 496.85 301.553C495.826 298.993 495.314 295.825 495.314 292.049V270.641C495.314 264.497 496.69 259.985 499.442 257.105C502.194 254.161 506.674 252.689 512.882 252.689H541.778C546.194 252.689 549.554 252.945 551.858 253.457C554.226 253.905 555.41 254.385 555.41 254.897L553.49 262.865C552.402 262.673 549.17 262.481 543.794 262.289C538.482 262.033 530.738 261.905 520.562 261.905H515.666C510.546 261.905 507.986 264.177 507.986 268.721V293.201C507.986 295.377 508.53 297.073 509.618 298.289C510.77 299.441 512.786 300.017 515.666 300.017H519.602C530.226 300.017 538.45 299.921 544.274 299.729C550.162 299.473 553.81 299.217 555.218 298.961L559.154 305.297C559.154 305.617 558.61 306.097 557.522 306.737C556.498 307.377 554.578 307.953 551.762 308.465C548.946 308.977 544.882 309.233 539.57 309.233H512.882ZM588.039 309.233L587.943 261.905H562.983V252.689H625.767V261.905H600.711V309.233H588.039Z" fill="#AFAFAF" fill-opacity="0.2" shape-rendering="crispEdges"/>
</g>
<g filter="url(#filter1_d_80_6)">
<path d="M89.18 169.233L90.14 161.553V112.785H102.812V160.017H142.556L146.396 168.177C146.396 168.433 145.532 168.689 143.804 168.945C142.076 169.137 139.1 169.233 134.876 169.233H89.18ZM154.993 169.233V112.785H214.705V122.001H167.665V135.249H203.569V144.753H167.665V160.017H215.089L218.929 168.177C218.929 168.433 218.065 168.689 216.337 168.945C214.609 169.137 211.633 169.233 207.409 169.233H154.993ZM247.789 169.233L247.693 121.905H222.733V112.689H285.517V121.905H260.461V169.233H247.789ZM332.62 169.233C328.268 169.233 325.068 169.041 323.02 168.657C320.972 168.273 319.948 167.825 319.948 167.313L323.788 158.961C325.26 159.217 328.908 159.473 334.732 159.729C340.62 159.921 348.684 160.017 358.924 160.017H360.748C363.5 160.017 365.451 159.537 366.604 158.577C367.756 157.553 368.332 155.857 368.332 153.489V151.569C368.332 149.329 367.852 147.729 366.892 146.769C365.996 145.809 363.948 145.329 360.748 145.329H338.476C332.012 145.329 327.308 144.145 324.364 141.777C321.42 139.345 319.948 135.409 319.948 129.969V128.433C319.948 125.617 320.46 123.025 321.484 120.657C322.572 118.289 324.396 116.401 326.956 114.993C329.516 113.521 333.036 112.785 337.516 112.785H363.628C367.98 112.785 371.5 113.009 374.188 113.457C376.876 113.905 378.22 114.385 378.22 114.897L376.3 122.961C374.636 122.769 370.86 122.577 364.972 122.385C359.084 122.129 351.18 122.001 341.26 122.001L340.204 121.905C337.26 121.905 335.276 122.513 334.252 123.729C333.228 124.881 332.684 126.353 332.62 128.145V129.777C332.62 131.889 333.196 133.489 334.348 134.577C335.564 135.601 337.548 136.113 340.3 136.113H361.612C365.708 136.113 369.196 136.529 372.076 137.361C374.956 138.193 377.164 139.729 378.7 141.969C380.236 144.145 381.004 147.377 381.004 151.665V153.201C381.004 158.001 379.756 161.873 377.26 164.817C374.828 167.761 370.572 169.233 364.492 169.233H332.62ZM105.788 284.233C101.244 284.233 97.692 283.593 95.132 282.313C92.572 281.033 90.78 279.113 89.756 276.553C88.732 273.993 88.22 270.825 88.22 267.049V245.641C88.22 239.497 89.596 234.985 92.348 232.105C95.1 229.161 99.58 227.689 105.788 227.689H134.684C139.1 227.689 142.46 227.945 144.764 228.457C147.132 228.905 148.316 229.385 148.316 229.897L146.396 237.865C145.308 237.673 142.076 237.481 136.7 237.289C131.388 237.033 123.644 236.905 113.468 236.905H108.572C103.452 236.905 100.892 239.177 100.892 243.721V268.201C100.892 270.377 101.436 272.073 102.524 273.289C103.676 274.441 105.692 275.017 108.572 275.017H112.508C123.132 275.017 131.356 274.921 137.18 274.729C143.068 274.473 146.716 274.217 148.124 273.961L152.06 280.297C152.06 280.617 151.516 281.097 150.428 281.737C149.404 282.377 147.484 282.953 144.668 283.465C141.852 283.977 137.788 284.233 132.476 284.233H105.788ZM178.257 284.233C173.777 284.233 170.257 283.593 167.697 282.313C165.137 281.033 163.313 279.113 162.225 276.553C161.201 273.993 160.689 270.825 160.689 267.049V244.873C160.689 241.161 161.201 238.057 162.225 235.561C163.249 233.001 165.041 231.081 167.601 229.801C170.161 228.457 173.713 227.785 178.257 227.785H206.289C210.769 227.785 214.257 228.457 216.753 229.801C219.313 231.081 221.105 233.001 222.129 235.561C223.217 238.057 223.761 241.161 223.761 244.873V267.049C223.761 272.681 222.513 276.969 220.017 279.913C217.521 282.793 212.945 284.233 206.289 284.233H178.257ZM181.041 275.017H203.601C205.969 275.017 207.793 274.409 209.073 273.193C210.417 271.977 211.089 270.313 211.089 268.201V243.721C211.089 241.865 210.417 240.297 209.073 239.017C207.729 237.673 205.905 237.001 203.601 237.001H181.041C178.737 237.001 176.881 237.609 175.473 238.825C174.065 240.041 173.361 241.673 173.361 243.721V268.201C173.361 270.377 174.033 272.073 175.377 273.289C176.785 274.441 178.673 275.017 181.041 275.017ZM239.109 284.233V235.465L238.149 227.785H251.973L284.613 261.961L288.357 267.145H289.413V227.785H302.085V284.233H289.893L256.485 249.481L252.741 244.969H251.781V284.233H239.109ZM318.421 284.233V235.465L317.461 227.785H331.285L363.925 261.961L367.669 267.145H368.725V227.785H381.397V284.233H369.205L335.797 249.481L332.053 244.969H331.093V284.233H318.421ZM396.774 284.233V227.785H456.486V237.001H409.446V250.249H445.35V259.753H409.446V275.017H456.87L460.71 283.177C460.71 283.433 459.846 283.689 458.118 283.945C456.39 284.137 453.414 284.233 449.19 284.233H396.774ZM486.882 284.233C482.338 284.233 478.786 283.593 476.226 282.313C473.666 281.033 471.874 279.113 470.85 276.553C469.826 273.993 469.314 270.825 469.314 267.049V245.641C469.314 239.497 470.69 234.985 473.442 232.105C476.194 229.161 480.674 227.689 486.882 227.689H515.778C520.194 227.689 523.554 227.945 525.858 228.457C528.226 228.905 529.41 229.385 529.41 229.897L527.49 237.865C526.402 237.673 523.17 237.481 517.794 237.289C512.482 237.033 504.738 236.905 494.562 236.905H489.666C484.546 236.905 481.986 239.177 481.986 243.721V268.201C481.986 270.377 482.53 272.073 483.618 273.289C484.77 274.441 486.786 275.017 489.666 275.017H493.602C504.226 275.017 512.45 274.921 518.274 274.729C524.162 274.473 527.81 274.217 529.218 273.961L533.154 280.297C533.154 280.617 532.61 281.097 531.522 281.737C530.498 282.377 528.578 282.953 525.762 283.465C522.946 283.977 518.882 284.233 513.57 284.233H486.882ZM562.039 284.233L561.943 236.905H536.983V227.689H599.767V236.905H574.711V284.233H562.039Z" fill="white"/>
<path d="M293.805 121.041C292.461 121.425 291.661 121.265 291.405 120.561C291.213 119.793 291.341 119.025 291.789 118.257C292.173 117.745 292.685 116.913 293.325 115.761C294.029 114.609 294.701 113.329 295.341 111.921C295.981 110.449 296.397 108.977 296.589 107.505C294.925 107.249 293.709 106.641 292.941 105.681C292.173 104.721 291.789 103.249 291.789 101.265C291.789 99.0254 292.301 97.4574 293.325 96.5614C294.413 95.6014 296.173 95.1214 298.605 95.1214C301.229 95.1214 303.181 95.6974 304.461 96.8494C305.805 97.9374 306.477 99.7614 306.477 102.321C306.477 104.177 306.061 106.129 305.229 108.177C304.461 110.225 303.437 112.177 302.157 114.033C300.877 115.825 299.501 117.361 298.029 118.641C296.557 119.857 295.149 120.657 293.805 121.041Z" fill="#C69B9B"/>
</g>
<defs>
<filter id="filter0_d_80_6" x="19.22" y="25.1216" width="711.546" height="389.112" filterUnits="userSpaceOnUse" color-interpolation-filters="sRGB">
<feFlood flood-opacity="0" result="BackgroundImageFix"/>
<feColorMatrix in="SourceAlpha" type="matrix" values="0 0 0 0 0 0 0 0 0 0 0 0 0 0 0 0 0 0 127 0" result="hardAlpha"/>
<feOffset dx="5" dy="5"/>
<feGaussianBlur stdDeviation="50"/>
<feComposite in2="hardAlpha" operator="out"/>
<feColorMatrix type="matrix" values="0 0 0 0 0 0 0 0 0 0 0 0 0 0 0 0 0 0 0.25 0"/>
<feBlend mode="normal" in2="BackgroundImageFix" result="effect1_dropShadow_80_6"/>
<feBlend mode="normal" in="SourceGraphic" in2="effect1_dropShadow_80_6" result="shape"/>
</filter>
<filter id="filter1_d_80_6" x="-6.78003" y="0.121582" width="711.546" height="389.112" filterUnits="userSpaceOnUse" color-interpolation-filters="sRGB">
<feFlood flood-opacity="0" result="BackgroundImageFix"/>
<feColorMatrix in="SourceAlpha" type="matrix" values="0 0 0 0 0 0 0 0 0 0 0 0 0 0 0 0 0 0 127 0" result="hardAlpha"/>
<feOffset dx="5" dy="5"/>
<feGaussianBlur stdDeviation="50"/>
<feComposite in2="hardAlpha" operator="out"/>
<feColorMatrix type="matrix" values="0 0 0 0 0 0 0 0 0 0 0 0 0 0 0 0 0 0 0.25 0"/>
<feBlend mode="normal" in2="BackgroundImageFix" result="effect1_dropShadow_80_6"/>
<feBlend mode="normal" in="SourceGraphic" in2="effect1_dropShadow_80_6" result="shape"/>
</filter>
</defs>
</svg>
