<svg width="101" height="314" viewBox="0 0 101 314" fill="none" xmlns="http://www.w3.org/2000/svg">
    <path
        d="M2.33325 1.6665C14.2855 1.6665 24.4111 1.76417 34.6295 8.33317C49.2093 17.7059 66.9151 26.8786 75.6666 42.9998C80.5673 52.0275 85.9064 59.6719 89.7407 69.3702C93.1092 77.8907 92.7104 86.797 95.6666 95.2961C102.092 113.771 98.3333 138.164 98.3333 157.518C98.3333 179.203 90.3163 204.751 82.9999 225.074C79.1559 235.752 73.2569 244.541 67.8147 254.259C63.8785 261.288 61.2256 271.336 54.3333 276.259C48.3034 280.566 42.8314 290.044 38.3333 295.667C35.0971 299.712 23.5642 311 18.3333 311"
        stroke="white" stroke-width="3" stroke-linecap="round" />
    <path
        d="M17.699 312.09C18.329 312.09 18.9494 312.203 19.5894 312.203C20.8411 312.203 22.0584 311.865 23.3075 311.865C25.152 311.865 26.9655 311.454 28.8034 311.277C30.8869 311.075 33.0086 311.206 35.0755 310.851C37.1381 310.497 39.1762 310.046 41.2224 309.611C42.2653 309.39 43.3045 309.494 44.3522 309.361C45.1398 309.261 45.9313 308.969 46.7183 308.823C47.4629 308.684 48.2338 308.651 48.9467 308.372C49.6042 308.115 50.1205 308.079 50.8246 308.009C51.6496 307.927 52.3892 307.585 53.1907 307.471"
        stroke="white" stroke-width="3" stroke-linecap="round" />
    <path
        d="M17.4735 311.527C17.3802 310.687 17.5197 310.19 17.8741 309.38C18.3959 308.187 18.9284 306.885 19.608 305.78C20.1137 304.958 20.4063 303.839 20.5219 302.895C20.6642 301.732 21.1255 300.662 21.3106 299.521C21.4758 298.502 21.9346 297.505 22.1494 296.479C22.3233 295.648 22.6043 294.846 22.6627 294C22.8582 291.165 24.444 288.428 25.3856 285.812C25.761 284.769 26.0155 283.499 26.7126 282.57"
        stroke="white" stroke-width="3" stroke-linecap="round" />
</svg>
